<svg xmlns="http://www.w3.org/2000/svg" xmlns:xlink="http://www.w3.org/1999/xlink" data-name="Layer 1" viewBox="0 0 24 24"><defs><linearGradient id="a" x1="6.101" x2="26.016" y1="11.847" y2="12.358" gradientUnits="userSpaceOnUse"><stop offset="0" stop-color="#96369f"/><stop offset="1" stop-color="#01b3ed"/></linearGradient><linearGradient id="b" x1="6.101" x2="26.016" y1="11.849" y2="12.359" xlink:href="#a"/></defs><path fill="url(#a)" d="M1.852,15.322A2.217,2.217,0,0,1,2.42,17.5,3.782,3.782,0,0,0,6.5,21.58a2.219,2.219,0,0,1,2.18.568,3.889,3.889,0,0,0,6.206.516,2.22,2.22,0,0,1,1.943-1.139,3.926,3.926,0,0,0,4.7-4.7,2.213,2.213,0,0,1,1.14-1.943,3.783,3.783,0,0,0,0-5.768,2.212,2.212,0,0,1-1.14-1.943L21.58,6.5A3.8,3.8,0,0,0,17.5,2.42a2.215,2.215,0,0,1-2.18-.568l-.438-.517a3.889,3.889,0,0,0-6.206.517A2.218,2.218,0,0,1,6.5,2.42,3.782,3.782,0,0,0,2.42,6.5a2.213,2.213,0,0,1-.568,2.18A3.927,3.927,0,0,0,1.852,15.322Zm.777-4.681A4.049,4.049,0,0,0,4.468,7.01c-.347-1.8.726-2.895,2.542-2.542A3.8,3.8,0,0,0,10.2,3.146a1.964,1.964,0,0,1,3.156-.517A4.057,4.057,0,0,0,16.99,4.468c1.8-.349,2.893.728,2.542,2.542A3.788,3.788,0,0,0,20.854,10.2,2.287,2.287,0,0,1,22,12a2.283,2.283,0,0,1-1.145,1.8,3.786,3.786,0,0,0-1.323,3.193c.348,1.805-.729,2.889-2.542,2.542a4.048,4.048,0,0,0-3.631,1.839,1.965,1.965,0,0,1-3.156-.516,4.052,4.052,0,0,0-3.869-1.268c-1.476.094-2.169-1.29-1.866-2.6A3.788,3.788,0,0,0,3.146,13.8C2.018,13.092,1.508,11.612,2.629,10.641Z"/><path fill="url(#b)" d="M12,17a5,5,0,1,0-5-5A5.006,5.006,0,0,0,12,17Zm0-8a3,3,0,1,1-3,3A3,3,0,0,1,12,9Z"/></svg>