<svg xmlns="http://www.w3.org/2000/svg" enable-background="new 0 0 512 512" viewBox="0 0 512 512"><path fill="#fff" d="M449.306,32.062v447.876c0,13.276-10.797,23.993-23.993,23.993H149.389V8.069h275.924
			C438.509,8.069,449.306,18.786,449.306,32.062z"/><path fill="#43c3ff" d="M149.365,8.069h-48.085c-17.668,0-31.991,14.323-31.991,31.991V471.94
			c0,17.668,14.323,31.991,31.991,31.991h48.085V8.069z"/><path fill="#ffcd7e" d="M470.967,240.876v30.249c0,7.71-6.25,13.96-13.96,13.96h-81.75
			c-16.063,0-29.084-13.021-29.084-29.084v0c0-16.063,13.021-29.084,29.084-29.084h81.75
			C464.717,226.916,470.967,233.166,470.967,240.876z"/><path fill="#ff787d" d="M385.35,91.405v55.105c0,8.834-7.161,15.996-15.996,15.996H229.34
			c-8.834,0-15.996-7.161-15.996-15.996V91.405c0-8.834,7.161-15.996,15.996-15.996h140.015
			C378.189,75.41,385.35,82.571,385.35,91.405z"/><path fill="#33226e" d="M457.304,218.946V32.062c0-17.64-14.348-31.991-31.991-31.991c-82.063,0-242.32,0-324.035,0
				c-22.049,0-39.989,17.94-39.989,39.989v14.312H41.036c-4.421,0-7.998,3.581-7.998,7.998s3.577,7.998,7.998,7.998h20.252v60.882
				H41.036c-4.421,0-7.998,3.581-7.998,7.998s3.577,7.998,7.998,7.998h20.252v60.882H41.036c-4.421,0-7.998,3.581-7.998,7.998
				s3.577,7.998,7.998,7.998h20.252V285H41.036c-4.421,0-7.998,3.581-7.998,7.998s3.577,7.998,7.998,7.998h20.252v60.882H41.036
				c-4.421,0-7.998,3.581-7.998,7.998s3.577,7.998,7.998,7.998h20.252v60.882H41.036c-4.421,0-7.998,3.581-7.998,7.998
				s3.577,7.998,7.998,7.998h20.252v17.191c0,22.049,17.94,39.989,39.989,39.989c81.715,0,241.973,0,324.035,0
				c17.644,0,31.991-14.352,31.991-31.991V293.054c11.966-0.164,21.658-9.921,21.658-21.929v-30.249
				C478.962,228.867,469.27,219.11,457.304,218.946z M141.368,495.934h-40.09c-13.231,0-23.993-10.763-23.993-23.993V454.75h15.777
				v5.03c0,4.417,3.577,7.998,7.998,7.998c4.421,0,7.998-3.581,7.998-7.998v-26.055c0-4.417-3.577-7.998-7.998-7.998
				c-4.421,0-7.998,3.581-7.998,7.998v5.03H77.284v-60.882h15.777v5.03c0,4.417,3.577,7.998,7.998,7.998
				c4.421,0,7.998-3.581,7.998-7.998v-26.055c0-4.417-3.577-7.998-7.998-7.998c-4.421,0-7.998,3.581-7.998,7.998v5.03H77.284
				v-60.882h15.777v5.03c0,4.417,3.577,7.998,7.998,7.998c4.421,0,7.998-3.581,7.998-7.998v-26.051c0-4.417-3.577-7.998-7.998-7.998
				c-4.421,0-7.998,3.581-7.998,7.998V285H77.284v-60.878h15.777v5.026c0,4.417,3.577,7.998,7.998,7.998
				c4.421,0,7.998-3.581,7.998-7.998v-26.051c0-4.417-3.577-7.998-7.998-7.998c-4.421,0-7.998,3.581-7.998,7.998v5.03H77.284
				v-60.882h15.777v5.03c0,4.417,3.577,7.998,7.998,7.998c4.421,0,7.998-3.581,7.998-7.998v-26.055c0-4.417-3.577-7.998-7.998-7.998
				c-4.421,0-7.998,3.581-7.998,7.998v5.03H77.284V70.368h15.777v5.03c0,4.417,3.577,7.998,7.998,7.998
				c4.421,0,7.998-3.581,7.998-7.998V49.342c0-4.417-3.577-7.998-7.998-7.998c-4.421,0-7.998,3.581-7.998,7.998v5.03H77.284V40.06
				c0-13.231,10.763-23.993,23.993-23.993h40.09V495.934z M425.313,495.934H157.387V16.066h267.926
				c8.818,0,15.996,7.174,15.996,15.996v186.855h-66.052c-20.447,0-37.083,16.636-37.083,37.083s16.636,37.083,37.083,37.083h66.052
				v186.855C441.308,488.76,434.13,495.934,425.313,495.934z M462.966,271.125c0,3.288-2.671,5.963-5.959,5.963h-81.751
				c-11.63,0-21.088-9.458-21.088-21.088c0-11.63,9.458-21.088,21.088-21.088h81.751c3.288,0,5.959,2.675,5.959,5.963V271.125z"/><path fill="#33226e" d="M388.995 248.002h-7.287c-4.421 0-7.998 3.581-7.998 7.998s3.577 7.998 7.998 7.998h7.287c4.421 0 7.998-3.581 7.998-7.998S393.415 248.002 388.995 248.002zM393.345 146.511V91.405c0-13.231-10.763-23.993-23.993-23.993H229.343c-13.231 0-23.993 10.763-23.993 23.993v55.106c0 13.231 10.763 23.993 23.993 23.993h140.008C382.582 170.504 393.345 159.741 393.345 146.511zM221.346 146.511V91.405c0-4.409 3.585-7.998 7.998-7.998h140.008c4.413 0 7.998 3.589 7.998 7.998v55.106c0 4.409-3.585 7.998-7.998 7.998H229.343C224.93 154.509 221.346 150.92 221.346 146.511z"/><path fill="#33226e" d="M342.015,110.958H256.68c-4.421,0-7.998,3.581-7.998,7.998s3.577,7.998,7.998,7.998h85.336
				c4.421,0,7.998-3.581,7.998-7.998S346.436,110.958,342.015,110.958z"/></svg>