<svg xmlns="http://www.w3.org/2000/svg" data-name="Layer 1" viewBox="0 0 128 128"><path fill="#2875ba" d="M94.57,108.54H33.43a7,7,0,0,1-7-7V39.86a2,2,0,0,1,2-2H99.57a2,2,0,0,1,2,2v61.68A7,7,0,0,1,94.57,108.54ZM30.43,41.86v59.68a3,3,0,0,0,3,3H94.57a3,3,0,0,0,3-3V41.86Z"/><path fill="#f2cd17" d="M106 41.86H22a3.08 3.08 0 0 1-3.08-3.08V26.84a7.39 7.39 0 0 1 7.38-7.38h75.42a7.39 7.39 0 0 1 7.38 7.38V38.78A3.08 3.08 0 0 1 106 41.86zm-83.1-4h82.18v-11a3.39 3.39 0 0 0-3.38-3.38H26.29a3.39 3.39 0 0 0-3.38 3.38zM83.07 55.22H44.93a2 2 0 0 1 0-4H83.07a2 2 0 0 1 0 4z"/></svg>